<svg width="1024" height="1024" viewBox="0 0 1024 1024" fill="none" xmlns="http://www.w3.org/2000/svg" role="img" aria-label="L0-t-0ulz avatar — two glowing AI eyes">
  <defs>
    <radialGradient id="bg" cx="0.5" cy="0.44" r="0.72">
      <stop offset="0" stop-color="#12162400"/>
      <stop offset="0" stop-color="#141829"/>
      <stop offset="0.55" stop-color="#0a0c15"/>
      <stop offset="1" stop-color="#04050a"/>
    </radialGradient>
    <radialGradient id="iris" cx="0.5" cy="0.5" r="0.5">
      <stop offset="0" stop-color="#f2feff"/>
      <stop offset="0.20" stop-color="#4decff"/>
      <stop offset="0.52" stop-color="#0b93da"/>
      <stop offset="0.85" stop-color="#062a45"/>
      <stop offset="1" stop-color="#062a45" stop-opacity="0"/>
    </radialGradient>
    <radialGradient id="glow" cx="0.5" cy="0.5" r="0.5">
      <stop offset="0" stop-color="#38e6ff" stop-opacity="0.6"/>
      <stop offset="1" stop-color="#38e6ff" stop-opacity="0"/>
    </radialGradient>
    <radialGradient id="haze" cx="0.5" cy="0.5" r="0.5">
      <stop offset="0" stop-color="#ff5bd0" stop-opacity="0.22"/>
      <stop offset="1" stop-color="#ff5bd0" stop-opacity="0"/>
    </radialGradient>
    <pattern id="grid" width="48" height="48" patternUnits="userSpaceOnUse">
      <path d="M48 0 H0 V48" fill="none" stroke="#0f2c40" stroke-width="1"/>
    </pattern>
    <clipPath id="eyeL"><path d="M202 505 C 277 413, 427 413, 502 505 C 427 597, 277 597, 202 505 Z"/></clipPath>
    <clipPath id="eyeR"><path d="M522 505 C 597 413, 747 413, 822 505 C 747 597, 597 597, 522 505 Z"/></clipPath>
  </defs>

  <rect width="1024" height="1024" fill="url(#bg)"/>
  <rect width="1024" height="1024" fill="url(#grid)" opacity="0.4"/>
  <ellipse cx="512" cy="505" rx="470" ry="330" fill="url(#haze)"/>

  <!-- HUD sensor ring -->
  <circle cx="512" cy="512" r="486" fill="none" stroke="#1d5f80" stroke-width="3" opacity="0.5"/>
  <circle cx="512" cy="512" r="474" fill="none" stroke="#38e6ff" stroke-width="1.5" opacity="0.3" stroke-dasharray="3 12"/>
  <g stroke="#5cefff" stroke-width="4" opacity="0.7">
    <line x1="512" y1="26" x2="512" y2="58"/>
    <line x1="512" y1="966" x2="512" y2="998"/>
    <line x1="26" y1="512" x2="58" y2="512"/>
    <line x1="966" y1="512" x2="998" y2="512"/>
  </g>

  <!-- ===== LEFT EYE (centre 352,505) ===== -->
  <circle cx="352" cy="505" r="200" fill="url(#glow)"/>
  <path d="M202 505 C 277 413, 427 413, 502 505 C 427 597, 277 597, 202 505 Z" fill="#02080f" stroke="#1f6486" stroke-width="3"/>
  <g clip-path="url(#eyeL)">
    <circle cx="352" cy="505" r="92" fill="url(#iris)"/>
    <circle cx="352" cy="505" r="73" fill="none" stroke="#c9f6ff" stroke-width="2" opacity="0.5"/>
    <circle cx="352" cy="505" r="50" fill="none" stroke="#c9f6ff" stroke-width="1.6" opacity="0.35"/>
    <line x1="260" y1="505" x2="444" y2="505" stroke="#eafcff" stroke-width="1.6" opacity="0.28"/>
  </g>
  <circle cx="352" cy="505" r="22" fill="#01121d"/>
  <circle cx="352" cy="505" r="8.5" fill="#f2feff"/>
  <path d="M202 505 C 277 423, 427 423, 502 505" fill="none" stroke="#5cefff" stroke-width="3.5" opacity="0.8"/>
  <g stroke="#66e9ff" stroke-width="3" opacity="0.65">
    <line x1="352" y1="393" x2="352" y2="409"/>
    <line x1="352" y1="601" x2="352" y2="617"/>
    <line x1="224" y1="505" x2="240" y2="505"/>
    <line x1="464" y1="505" x2="480" y2="505"/>
  </g>

  <!-- ===== RIGHT EYE (centre 672,505) ===== -->
  <circle cx="672" cy="505" r="200" fill="url(#glow)"/>
  <path d="M522 505 C 597 413, 747 413, 822 505 C 747 597, 597 597, 522 505 Z" fill="#02080f" stroke="#1f6486" stroke-width="3"/>
  <g clip-path="url(#eyeR)">
    <circle cx="672" cy="505" r="92" fill="url(#iris)"/>
    <circle cx="672" cy="505" r="73" fill="none" stroke="#c9f6ff" stroke-width="2" opacity="0.5"/>
    <circle cx="672" cy="505" r="50" fill="none" stroke="#c9f6ff" stroke-width="1.6" opacity="0.35"/>
    <line x1="580" y1="505" x2="764" y2="505" stroke="#eafcff" stroke-width="1.6" opacity="0.28"/>
  </g>
  <circle cx="672" cy="505" r="22" fill="#01121d"/>
  <circle cx="672" cy="505" r="8.5" fill="#f2feff"/>
  <path d="M522 505 C 597 423, 747 423, 822 505" fill="none" stroke="#5cefff" stroke-width="3.5" opacity="0.8"/>
  <g stroke="#66e9ff" stroke-width="3" opacity="0.65">
    <line x1="672" y1="393" x2="672" y2="409"/>
    <line x1="672" y1="601" x2="672" y2="617"/>
    <line x1="544" y1="505" x2="560" y2="505"/>
    <line x1="784" y1="505" x2="800" y2="505"/>
  </g>

  <!-- micro wordmark -->
  <text x="512" y="712" text-anchor="middle" font-family="ui-monospace, SFMono-Regular, Menlo, Consolas, monospace" font-size="52" font-weight="700" letter-spacing="10" fill="#cdf3ff" opacity="0.92">L0-t-0ulz</text>
</svg>
